<svg xmlns="http://www.w3.org/2000/svg" viewBox="0 0 512 512"><defs><style>
.bg{fill:#fff}.ink{fill:#070707}.accent{fill:#ff2d7d}.line{stroke:#070707}@media(prefers-color-scheme:dark){.bg{fill:#0a0a0a}.ink{fill:#f5f5f5}.accent{fill:#00e5ff}.line{stroke:#f5f5f5}}
</style></defs><rect class="bg" width="512" height="512"/>
<!-- three worker silhouettes -->
<circle class="ink" cx="157" cy="133" r="34"/><circle class="ink" cx="256" cy="105" r="45"/><circle class="ink" cx="355" cy="133" r="34"/>
<path class="ink" d="M101 286l25-103 31-28 31 28 25 103zM183 294l27-139 46-35 46 35 27 139zM300 286l25-103 31-28 31 28 25 103z"/>
<!-- shared forge -->
<path class="accent" d="M108 301h296l-22 37H130z"/>
<path class="ink" d="M83 338h346l-31 48H114zM144 386h224l-25 40H169zM191 426h130l-20 34H211z"/>
<path class="line" fill="none" stroke-width="8" d="M116 338h280"/>
</svg>